Coordinates
version=1
nRows=17
nColumns=40
inDegrees=yes

Units are S.I. units (second, meters, Newtons, ...)
If the header above contains a line with 'inDegrees', this indicates whether rotational values are in degrees (yes) or radians (no).

endheader
time	pelvis_tilt	pelvis_list	pelvis_rotation	pelvis_tx	pelvis_ty	pelvis_tz	hip_flexion_r	hip_adduction_r	hip_rotation_r	knee_angle_r	knee_angle_r_beta	ankle_angle_r	subtalar_angle_r	mtp_angle_r	hip_flexion_l	hip_adduction_l	hip_rotation_l	knee_angle_l	knee_angle_l_beta	ankle_angle_l	subtalar_angle_l	mtp_angle_l	lumbar_extension	lumbar_bending	lumbar_rotation	arm_flex_r	arm_add_r	arm_rot_r	elbow_flex_r	pro_sup_r	wrist_flex_r	wrist_dev_r	arm_flex_l	arm_add_l	arm_rot_l	elbow_flex_l	pro_sup_l	wrist_flex_l	wrist_dev_l
      4.18500000	     -5.02195836	     -2.22351641	      3.70849222	     -0.37413083	      0.90208843	     -0.87364695	     32.55723286	    -16.66635439	     -8.47379954	     56.96975433	      0.99430979	     26.88470707	      0.00000000	      0.00000000	     36.87988405	    -16.25777583	      4.42200867	     57.49129121	      1.00341232	     25.24793442	      0.00000000	      0.00000000	    -17.77914781	      0.27927318	      0.59794478	    -23.07110890	    -59.04458965	     32.23297065	    114.75893245	     87.98653065	      0.00000000	      0.00000000	    -22.60842311	    -57.68020617	     41.82806823	    100.84951903	     88.21837587	      0.00000000	      0.00000000
      4.19000000	     -6.25892782	     -1.73875832	      3.21207902	     -0.38048577	      0.88828233	     -0.87199352	     36.91008846	    -16.88435659	     -5.89696069	     60.92066473	      1.06326618	     27.43965947	      0.00000000	      0.00000000	     40.47048108	    -16.21926222	      4.24381776	     61.03659306	      1.06528951	     25.16667110	      0.00000000	      0.00000000	    -17.59807518	     -0.42802561	      0.81833023	    -21.97562277	    -58.99829787	     33.24168736	    114.46615713	     88.01020491	      0.00000000	      0.00000000	    -21.64735942	    -58.07915658	     42.68072807	    101.00920544	     88.21912986	      0.00000000	      0.00000000
      4.19500000	     -7.40258610	     -1.33726693	      2.70388644	     -0.38614399	      0.87462434	     -0.87050834	     40.92084766	    -16.94583898	     -3.83653764	     64.60036776	      1.12748912	     27.93655968	      0.00000000	      0.00000000	     43.62542802	    -16.40464138	      3.81958401	     64.16361232	      1.11986629	     25.75644124	      0.00000000	      0.00000000	    -17.45575064	     -1.01360741	      1.05356073	    -21.17419074	    -59.11126980	     34.03851174	    114.47220389	     88.00973126	      0.00000000	      0.00000000	    -20.95384742	    -58.45016256	     43.37728863	    101.37088694	     88.21777224	      0.00000000	      0.00000000
      4.20000000	     -8.24741510	     -1.26668123	      2.39348583	     -0.39113381	      0.86219945	     -0.86948438	     44.05054289	    -16.72956243	     -2.55443346	     67.56919752	      1.17930497	     28.22498505	      0.00000000	      0.00000000	     46.23879357	    -16.84022575	      3.65372093	     66.77146389	      1.16538189	     26.21282061	      0.00000000	      0.00000000	    -17.49357173	     -1.16989731	      1.11184927	    -19.60599795	    -59.34134099	     35.84091551	    114.03635904	     88.06949871	      0.00000000	      0.00000000	    -19.61734251	    -58.75290530	     45.04618145	    101.45881228	     88.22612565	      0.00000000	      0.00000000
      4.20500000	     -9.05501504	     -1.37377995	      1.95690646	     -0.39585404	      0.84978393	     -0.86834799	     46.81149779	    -16.31035445	     -1.69946595	     70.16517133	      1.22461326	     29.12843190	      0.00000000	      0.00000000	     48.54020260	    -17.53347544	      3.56405849	     69.04644788	      1.20508785	     27.26939613	      0.00000000	      0.00000000	    -17.68469733	     -1.14814825	      1.36307902	    -18.92052398	    -59.68132241	     36.54246143	    114.14656400	     88.04483982	      0.00000000	      0.00000000	    -19.03985910	    -58.89978150	     45.66234873	    101.84026875	     88.22103834	      0.00000000	      0.00000000
      4.21000000	     -9.66724920	     -1.66213949	      1.58456728	     -0.40013812	      0.83816069	     -0.86742461	     48.97869369	    -15.87581332	     -1.29657988	     72.37269211	      1.26314177	     30.05771604	      0.00000000	      0.00000000	     50.53020574	    -18.40865441	      3.58540319	     71.08449288	      1.24065845	     28.37370726	      0.00000000	      0.00000000	    -18.02492412	     -0.89623056	      1.57120931	    -17.98098635	    -60.18929069	     37.70282398	    114.12324226	     88.06384423	      0.00000000	      0.00000000	    -18.22405930	    -59.11917521	     46.74444271	    102.22385884	     88.23135021	      0.00000000	      0.00000000
      4.21500000	    -10.12529386	     -1.76445468	      1.46569690	     -0.40430580	      0.82721460	     -0.86723722	     50.71919229	    -15.93618575	     -1.11293639	     74.31740659	      1.29708344	     31.04686749	      0.00000000	      0.00000000	     52.17775425	    -18.85023234	      3.73614148	     72.84091216	      1.27131375	     29.69984786	      0.00000000	      0.00000000	    -18.60252322	     -0.74248526	      1.49328606	    -17.06397245	    -60.69366573	     38.66561357	    114.27919303	     88.10274682	      0.00000000	      0.00000000	    -17.41298775	    -59.33774284	     47.73142138	    102.66798815	     88.25696453	      0.00000000	      0.00000000
      4.22000000	    -10.61642367	     -1.86686012	      1.38413294	     -0.40860796	      0.81656904	     -0.86678628	     52.40376550	    -16.08389189	     -0.99622063	     76.05966229	      1.32749153	     32.09616685	      0.00000000	      0.00000000	     53.81109048	    -19.21918684	      4.01690062	     74.42901481	      1.29903137	     30.92977425	      0.00000000	      0.00000000	    -19.07454209	     -0.60774473	      1.39374326	    -15.80648738	    -61.26134191	     40.07596618	    114.43318096	     88.11584290	      0.00000000	      0.00000000	    -16.31120865	    -59.77780759	     49.10646382	    103.10284291	     88.26564526	      0.00000000	      0.00000000
      4.22500000	    -11.18280401	     -1.25217228	      1.02314745	     -0.41279350	      0.80592525	     -0.86628549	     54.47092978	    -16.66087109	     -0.14590274	     77.90724398	      1.35973792	     32.62279427	      0.00000000	      0.00000000	     55.20680226	    -19.26200545	      3.53416200	     75.98341547	      1.32616078	     31.81462165	      0.00000000	      0.00000000	    -19.25723131	     -1.29380031	      1.21131795	    -13.02057582	    -61.81635693	     43.31972626	    114.28181922	     88.05801340	      0.00000000	      0.00000000	    -14.22863746	    -60.46204661	     51.92210747	    103.35487328	     88.22925626	      0.00000000	      0.00000000
      4.23000000	    -11.76216572	     -0.64094793	      0.56764960	     -0.41696362	      0.79563831	     -0.86546531	     56.54134385	    -17.08766269	      0.74213455	     79.59932627	      1.38927033	     33.35731125	      0.00000000	      0.00000000	     56.66912333	    -19.39094706	      3.04802905	     77.54973442	      1.35349820	     32.54420956	      0.00000000	      0.00000000	    -19.52916547	     -2.02285770	      1.14975836	    -11.31028679	    -62.22451722	     45.15164874	    114.41785668	     88.05374733	      0.00000000	      0.00000000	    -13.23368940	    -61.04834417	     53.25216997	    103.85787488	     88.23202588	      0.00000000	      0.00000000
      4.23500000	    -12.19546232	     -0.20089706	      0.35324911	     -0.42104707	      0.78561938	     -0.86472859	     58.34147334	    -17.55762664	      1.30599223	     81.21320040	      1.41743774	     34.16713481	      0.00000000	      0.00000000	     58.15994837	    -19.55437153	      2.72743573	     79.15050839	      1.38143698	     33.19480900	      0.00000000	      0.00000000	    -20.07113315	     -2.51544226	      1.03115995	    -10.70895523	    -62.58694150	     45.69053728	    114.93076124	     88.06309563	      0.00000000	      0.00000000	    -12.73895345	    -61.68336200	     53.67580902	    104.57598202	     88.24742864	      0.00000000	      0.00000000
      4.24000000	    -12.76428385	      0.40873813	     -0.11285416	     -0.42432451	      0.77566081	     -0.86339989	     60.42973779	    -17.81463622	      2.25362032	     82.88581629	      1.44663040	     34.58586240	      0.00000000	      0.00000000	     59.58920952	    -19.89357429	      2.06551411	     80.65771795	      1.40774275	     33.68493051	      0.00000000	      0.00000000	    -20.15020284	     -3.30785021	      0.95561497	     -8.47441732	    -62.77470486	     48.23843264	    114.85623655	     88.01654751	      0.00000000	      0.00000000	    -11.21017706	    -62.42724647	     55.79720276	    105.01251012	     88.22289541	      0.00000000	      0.00000000
      4.24500000	    -13.01127956	      0.70710473	     -0.31127025	     -0.42749339	      0.76628559	     -0.86251128	     61.97264468	    -18.09753923	      2.71835973	     84.47466664	      1.47436107	     35.07041160	      0.00000000	      0.00000000	     60.93722467	    -20.18913529	      1.91034440	     82.29122970	      1.43625290	     34.11960415	      0.00000000	      0.00000000	    -20.78211564	     -3.66971683	      0.83530642	     -8.08962624	    -63.04397721	     48.61123900	    115.27053327	     88.03641932	      0.00000000	      0.00000000	    -10.87553285	    -63.06506860	     56.13779808	    105.72957360	     88.24798821	      0.00000000	      0.00000000
      4.25000000	    -13.64393367	      1.58749541	     -0.69586106	     -0.43185390	      0.75666465	     -0.86160653	     64.42545771	    -18.35396155	      4.15145761	     86.10432839	      1.50280403	     35.08123787	      0.00000000	      0.00000000	     62.44202456	    -20.21094837	      1.17377890	     83.73987898	      1.46153660	     34.26937548	      0.00000000	      0.00000000	    -20.92027675	     -4.69612838	      0.67171291	     -6.48161040	    -63.23331366	     50.23260763	    115.42272354	     88.01402000	      0.00000000	      0.00000000	     -9.26486279	    -63.92886582	     57.97079094	    106.40884977	     88.23619267	      0.00000000	      0.00000000
      4.25500000	    -14.05689521	      1.70076137	     -0.95167111	     -0.43499998	      0.74759885	     -0.86043745	     66.12880513	    -18.29377724	      4.57670029	     87.58011521	      1.52856137	     35.53164176	      0.00000000	      0.00000000	     64.00014155	    -20.70227441	      1.23142180	     85.25850182	      1.48804157	     34.42025605	      0.00000000	      0.00000000	    -21.31137609	     -4.89690731	      0.67183797	     -5.99405218	    -63.41235072	     50.71709750	    115.74100305	     88.01526937	      0.00000000	      0.00000000	     -8.66428681	    -64.58894517	     58.57190728	    107.08852061	     88.23963362	      0.00000000	      0.00000000
      4.26000000	    -14.17560720	      1.69969660	     -0.92729713	     -0.43764567	      0.73929474	     -0.85989426	     67.36727262	    -18.53830117	      4.67336910	     89.03583301	      1.55396844	     35.66965598	      0.00000000	      0.00000000	     65.31403191	    -21.00317810	      1.51481432	     86.75229612	      1.51411320	     34.49230696	      0.00000000	      0.00000000	    -21.92127754	     -4.86803024	      0.51398284	     -4.96337944	    -63.70347400	     51.96491790	    115.86292597	     88.01587281	      0.00000000	      0.00000000	     -6.94405386	    -65.11098545	     60.58246512	    107.41543201	     88.23749819	      0.00000000	      0.00000000
      4.26500000	    -14.55066398	      1.78771012	     -1.18326114	     -0.44083822	      0.73050213	     -0.85901825	     68.97953172	    -18.44005332	      5.07823343	     90.40409329	      1.57784909	     35.89188526	      0.00000000	      0.00000000	     66.86693113	    -21.50535017	      1.63228327	     88.22186023	      1.53976193	     34.61409675	      0.00000000	      0.00000000	    -22.36179663	     -5.01956243	      0.57588677	     -4.77796041	    -64.07310935	     52.09711514	    116.28170608	     88.01115855	      0.00000000	      0.00000000	     -6.50452417	    -65.69112686	     60.88861523	    107.98770213	     88.24502652	      0.00000000	      0.00000000
